<?xml version="1.0" standalone="no"?>
<!DOCTYPE svg PUBLIC "-//W3C//DTD SVG 20010904//EN"
 "http://www.w3.org/TR/2001/REC-SVG-20010904/DTD/svg10.dtd">
<svg version="1.0" xmlns="http://www.w3.org/2000/svg"
 width="512.000000pt" height="512.000000pt" viewBox="0 0 512.000000 512.000000"
 preserveAspectRatio="xMidYMid meet">

<g transform="translate(0.000000,512.000000) scale(0.100000,-0.100000)"
fill="#000000" stroke="none">
<path d="M2295 5014 c-341 -49 -507 -94 -769 -211 -562 -251 -1035 -748 -1260
-1323 -236 -605 -231 -1244 13 -1853 44 -109 71 -161 80 -151 4 5 27 70 50
144 24 74 61 169 82 211 l38 76 -15 49 c-59 191 -87 395 -87 619 1 549 198
1044 579 1455 44 47 99 111 122 143 57 77 128 131 241 185 59 28 95 51 98 63
3 10 9 17 13 14 5 -3 11 -1 15 4 3 6 12 8 20 4 8 -3 75 22 148 55 214 97 423
156 657 183 103 11 454 7 528 -7 32 -6 33 -6 25 22 -15 61 -7 140 21 198 15
31 34 56 42 56 18 0 18 1 -6 -53 -23 -52 -36 -149 -26 -200 l6 -34 88 -17
c217 -43 515 -167 716 -300 55 -36 104 -66 108 -66 23 0 127 122 148 173 26
62 40 73 40 30 -1 -64 -68 -162 -134 -198 -20 -11 -36 -22 -35 -25 0 -3 25
-24 55 -48 56 -45 65 -46 124 -19 57 26 141 130 152 190 5 25 -3 34 -70 89
-255 209 -599 385 -916 469 -219 58 -328 71 -606 74 -140 2 -268 1 -285 -1z
m175 -64 c0 -16 -7 -20 -37 -20 -47 0 -68 -13 -59 -35 5 -13 16 -16 49 -13 36
3 42 0 42 -17 0 -16 -8 -21 -43 -23 -40 -3 -43 -5 -40 -30 3 -26 5 -27 51 -24
42 3 47 2 47 -16 0 -17 -9 -22 -55 -27 -78 -10 -85 -5 -85 57 0 29 -3 76 -6
105 -7 59 -6 60 84 62 46 1 52 -1 52 -19z m168 -84 c18 -57 32 -107 32 -110 0
-18 -38 -2 -48 19 -9 19 -19 25 -42 25 -23 0 -33 -6 -40 -25 -9 -23 -29 -33
-42 -19 -3 3 10 52 29 110 31 90 38 104 58 104 19 0 26 -13 53 -104z m192 79
c26 -24 25 -61 -2 -88 -23 -22 -23 -23 -6 -57 23 -45 23 -60 -1 -60 -12 0 -27
16 -42 47 -13 25 -28 46 -34 45 -5 -1 -12 -18 -15 -39 -3 -26 -11 -39 -22 -41
-20 -4 -23 30 -11 152 l6 68 53 -4 c33 -3 62 -12 74 -23z m-530 3 c0 -7 -9
-37 -21 -67 -15 -41 -19 -67 -14 -102 5 -37 3 -48 -9 -52 -19 -8 -22 -3 -31
50 -4 24 -23 66 -45 97 -21 30 -36 57 -32 60 14 15 39 2 61 -32 17 -25 26 -32
29 -22 15 50 33 80 46 80 9 0 16 -6 16 -12z m760 -38 c32 -32 25 -67 -20 -112
-22 -22 -40 -42 -40 -43 0 -2 11 -6 25 -9 17 -4 25 -13 25 -27 0 -20 -4 -21
-46 -14 -93 14 -95 23 -19 93 30 28 55 58 55 66 0 23 -19 30 -38 13 -17 -15
-42 -13 -42 4 0 17 40 49 60 49 11 0 29 -9 40 -20z m-1007 -15 c7 -18 2 -21
-46 -30 -31 -6 -38 -11 -35 -29 3 -22 13 -24 60 -11 21 5 29 3 34 -9 8 -21 2
-27 -38 -35 -27 -6 -33 -12 -33 -31 0 -26 5 -27 70 -19 24 3 30 0 30 -15 0
-15 -12 -22 -59 -33 -33 -7 -63 -10 -66 -6 -9 9 -53 203 -48 207 6 6 83 24
104 25 12 1 24 -6 27 -14z m1156 -26 c13 -23 13 -35 2 -85 -17 -72 -57 -119
-93 -105 -34 12 -44 50 -29 115 21 96 86 136 120 75z m-1331 -17 c2 -8 -12
-19 -37 -29 -29 -11 -41 -22 -41 -36 0 -17 4 -19 33 -12 53 11 61 11 65 -7 2
-12 -8 -20 -38 -29 -34 -10 -39 -15 -34 -33 9 -30 10 -30 54 -17 43 13 60 9
60 -14 0 -19 -116 -57 -128 -42 -20 26 -70 197 -60 203 19 12 92 33 107 31 8
-1 16 -8 19 -15z m1451 -3 c52 -15 52 -33 2 -82 -22 -21 -50 -58 -63 -83 -24
-46 -35 -53 -44 -30 -7 18 18 66 58 112 26 29 29 37 17 45 -8 5 -19 9 -26 9
-6 0 -14 4 -17 9 -9 15 5 43 19 37 7 -2 31 -10 54 -17z m135 -49 c25 -12 46
-26 46 -32 0 -6 -18 -27 -40 -45 -22 -19 -52 -55 -66 -79 -26 -44 -54 -59 -54
-28 0 20 56 101 81 117 26 16 24 22 -11 37 -29 12 -38 29 -23 43 10 10 16 9
67 -13z m-1801 -96 c16 -38 32 -72 36 -77 4 -4 23 -1 43 7 36 15 48 13 48 -10
0 -13 -80 -54 -105 -54 -15 0 -89 185 -80 200 13 21 29 3 58 -66z m1931 48 c7
-12 -123 -192 -140 -192 -8 0 -14 2 -14 6 0 10 134 194 142 194 4 0 9 -4 12
-8z m-1989 -98 c44 -94 47 -114 21 -114 -16 0 -99 178 -92 197 11 28 28 9 71
-83z m2079 -3 c-1 -52 -49 -132 -87 -145 -40 -15 -72 19 -63 66 8 46 60 126
88 137 38 15 63 -9 62 -58z m-2198 41 c17 -11 36 -51 29 -62 -3 -6 -1 -10 4
-10 21 0 51 -41 51 -69 0 -19 -8 -36 -25 -49 -26 -21 -84 -47 -89 -41 -11 13
-96 178 -96 186 0 11 78 52 100 52 8 0 20 -3 26 -7z m2308 -55 c22 -12 41 -27
43 -34 2 -6 -16 -25 -41 -42 -24 -17 -60 -49 -79 -72 -33 -38 -57 -45 -57 -15
0 14 86 99 110 109 16 6 16 6 -29 36 -14 9 -9 41 6 41 4 0 26 -10 47 -23z
m-2430 -89 c60 -94 60 -132 -4 -158 -41 -17 -69 2 -124 88 -37 57 -42 69 -30
81 7 8 15 13 17 10 2 -2 23 -32 46 -67 46 -69 63 -81 86 -62 21 17 20 18 -29
96 -25 37 -42 72 -40 76 13 21 36 2 78 -64z m2566 2 c26 -26 25 -46 -5 -76
-14 -14 -25 -34 -25 -45 0 -27 -44 -69 -71 -69 -61 0 -79 72 -29 113 17 14 30
31 30 38 0 20 41 59 62 59 10 0 27 -9 38 -20z m-2725 -103 c61 -81 69 -116 33
-141 -29 -21 -41 -20 -69 3 -18 15 -21 22 -13 31 9 9 17 9 33 0 43 -22 34 17
-18 86 -40 52 -48 70 -40 80 6 8 13 14 15 14 2 0 28 -33 59 -73z m-188 -103
c16 -17 24 -33 21 -48 -4 -19 2 -25 44 -40 80 -28 58 -56 -28 -36 -30 7 -57
11 -60 7 -3 -3 6 -22 22 -42 21 -28 25 -38 15 -48 -10 -9 -29 5 -87 68 -40 44
-74 83 -74 87 0 11 91 78 107 78 8 0 25 -12 40 -26z m-160 -110 c3 -9 -5 -26
-21 -43 -49 -51 -22 -81 28 -32 29 28 34 30 46 16 11 -13 9 -20 -15 -45 -28
-29 -28 -30 -10 -50 l19 -21 36 36 c33 32 38 34 50 20 11 -14 7 -22 -31 -61
-24 -24 -49 -43 -56 -42 -13 3 -153 136 -153 146 0 9 83 92 92 92 5 0 11 -7
15 -16z m-59 -196 c57 -82 62 -92 48 -106 -14 -14 -25 -11 -116 27 -91 39
-116 60 -91 75 5 3 39 -7 76 -24 37 -16 69 -30 71 -30 3 0 -15 28 -39 63 -42
59 -50 87 -24 87 7 -1 40 -42 75 -92z m-150 -153 c34 -25 65 -45 70 -45 5 0
18 14 30 30 13 17 27 30 33 30 24 0 19 -33 -12 -72 -18 -24 -34 -45 -35 -46
-1 -2 -41 22 -88 55 -51 35 -85 65 -86 76 0 27 21 20 88 -28z m0 -91 c60 -37
73 -56 52 -69 -13 -8 -190 104 -190 120 0 33 8 30 138 -51z m-108 -21 c0 -16
-16 -31 -35 -34 -21 -4 -35 -49 -15 -49 7 0 25 11 42 25 36 31 74 32 105 3 29
-27 29 -57 2 -92 -25 -32 -93 -39 -87 -9 2 10 12 19 23 21 26 5 45 21 45 39 0
26 -29 25 -61 -1 -40 -34 -81 -34 -108 0 -16 21 -18 30 -10 52 6 14 15 32 21
39 11 14 78 18 78 6z m-120 -232 c0 -12 -9 -21 -24 -25 -50 -13 -37 -71 23
-96 59 -24 116 19 77 58 -14 14 -16 14 -22 -1 -7 -18 -29 -23 -38 -8 -7 10 16
71 27 71 4 0 26 -9 47 -20 35 -18 40 -25 40 -56 0 -26 -8 -43 -29 -65 -36 -36
-80 -38 -136 -6 -67 38 -81 101 -35 147 26 26 70 27 70 1z m-28 -193 c54 -18
98 -37 98 -44 0 -20 -24 -31 -83 -39 -31 -3 -55 -10 -52 -14 2 -5 25 -14 50
-21 49 -14 63 -26 47 -42 -13 -13 -212 51 -212 68 0 21 24 32 88 39 71 8 70
16 -1 35 -50 13 -62 23 -52 40 8 14 7 14 117 -22z m-51 -165 c92 -24 117 -41
89 -58 -5 -3 -55 7 -110 22 -78 22 -100 32 -100 45 0 23 3 23 121 -9z m-103
-66 c3 -28 21 -36 113 -52 47 -9 63 -20 56 -38 -6 -16 -6 -16 -155 18 -17 4
-24 0 -32 -20 -10 -26 -24 -32 -35 -15 -6 10 12 116 22 133 9 16 28 0 31 -26z
m152 -172 c-7 -8 -21 -15 -30 -15 -13 0 -21 -10 -25 -32 -6 -26 -4 -35 14 -46
15 -11 21 -25 21 -53 0 -36 -3 -40 -51 -64 -28 -14 -49 -31 -46 -38 2 -7 22
-13 45 -15 34 -3 42 -7 42 -23 0 -20 -4 -20 -102 -14 -57 4 -106 9 -110 12
-14 8 -8 98 8 121 19 28 67 29 93 3 19 -19 22 -19 60 -3 23 9 41 19 41 22 0 3
-43 27 -95 53 -72 35 -95 52 -95 66 0 22 0 22 145 45 83 13 107 8 85 -19z
m-56 -346 c24 -19 27 -27 24 -78 l-3 -56 -110 0 -110 0 0 54 c0 46 4 57 26 73
21 16 29 17 51 7 22 -9 30 -8 49 5 31 21 41 20 73 -5z m30 -220 c5 -43 4 -64
-4 -69 -19 -12 -202 -22 -212 -12 -5 5 -8 36 -6 68 2 44 7 59 18 59 10 0 17
-14 20 -45 4 -37 9 -45 25 -45 17 0 20 7 20 44 0 28 5 46 14 49 18 6 31 -16
31 -56 0 -30 2 -33 27 -30 26 3 27 5 24 51 -2 41 0 47 17 47 16 0 21 -10 26
-61z m9 -106 c3 -10 8 -39 12 -64 l6 -47 -63 -10 c-153 -26 -158 -26 -158 -4
0 21 11 24 119 38 l53 7 -6 43 c-4 29 -2 44 7 47 21 9 26 7 30 -10z m39 -206
c7 -31 9 -59 6 -63 -8 -7 -166 -43 -194 -44 -16 0 -23 8 -27 33 -3 17 -9 47
-13 65 -6 28 -4 32 14 32 15 0 22 -10 31 -45 12 -48 12 -48 35 -39 12 5 14 16
9 50 -5 40 -4 44 15 44 16 0 22 -9 27 -40 7 -40 18 -48 44 -31 10 7 12 20 7
52 -5 30 -3 45 6 50 19 12 27 -1 40 -64z m23 -132 c61 -60 -4 -146 -113 -148
-37 0 -49 5 -69 27 -29 34 -29 67 0 94 29 28 51 13 35 -24 -17 -36 -4 -54 40
-54 42 0 92 31 92 57 0 8 -13 20 -30 26 -16 6 -30 16 -30 23 0 32 43 32 75 -1z"/>
<path d="M2572 4880 c-11 -28 -7 -40 14 -40 15 0 17 14 4 45 -7 19 -8 19 -18
-5z"/>
<path d="M2743 4914 c-8 -22 5 -44 25 -44 22 0 46 25 38 38 -10 17 -57 21 -63
6z"/>
<path d="M3151 4847 c-19 -24 -36 -116 -23 -129 9 -9 15 -3 26 23 31 74 29
144 -3 106z"/>
<path d="M3597 4621 c-27 -49 -34 -81 -19 -81 12 0 37 30 56 67 38 75 3 88
-37 14z"/>
<path d="M1433 4648 c-25 -12 -27 -16 -14 -37 13 -20 64 2 59 26 -4 21 -17 24
-45 11z"/>
<path d="M1466 4567 c-16 -12 -17 -16 -5 -35 17 -26 18 -26 48 -3 44 34 2 71
-43 38z"/>
<path d="M3877 4524 c-14 -14 -7 -35 11 -32 9 2 17 10 17 17 0 16 -18 25 -28
15z"/>
<path d="M3822 4448 c-16 -16 -15 -48 2 -48 20 0 39 27 32 45 -7 18 -18 19
-34 3z"/>
<path d="M942 4308 c-16 -16 -15 -33 4 -48 13 -11 19 -10 36 7 12 13 18 28 15
37 -7 19 -38 21 -55 4z"/>
<path d="M242 2912 c-9 -6 -5 -12 13 -20 34 -16 35 -15 35 8 0 21 -24 27 -48
12z"/>
<path d="M187 2754 c-4 -4 -7 -20 -7 -36 0 -23 4 -28 26 -28 23 0 25 3 22 32
-3 31 -25 48 -41 32z"/>
<path d="M187 2564 c-4 -4 -7 -20 -7 -36 0 -22 5 -28 21 -28 17 0 20 5 17 32
-3 31 -17 45 -31 32z"/>
<path d="M264 2556 c-11 -29 0 -51 26 -51 21 0 25 5 25 30 0 24 -5 31 -23 33
-13 2 -24 -3 -28 -12z"/>
<path d="M2300 4595 c-119 -15 -218 -36 -329 -67 -86 -24 -117 -42 -56 -33
103 16 398 -59 519 -132 209 -127 317 -374 272 -623 -8 -46 -14 -86 -12 -88 2
-2 21 49 42 113 50 154 91 222 196 327 66 66 105 95 164 125 77 37 80 38 193
38 102 0 130 -4 231 -33 131 -38 258 -63 265 -52 3 5 -42 40 -99 79 -250 170
-540 288 -826 336 -132 22 -428 28 -560 10z"/>
<path d="M1748 4371 c-69 -23 -147 -71 -187 -116 -72 -82 -125 -210 -142 -342
-9 -74 -8 -103 6 -183 10 -52 20 -121 22 -152 5 -51 3 -59 -20 -82 -31 -31
-55 -32 -141 -6 -87 27 -181 113 -226 204 -28 58 -55 179 -44 197 3 5 1 9 -5
9 -34 0 -211 -259 -296 -435 -156 -322 -212 -591 -202 -959 5 -179 16 -271 51
-419 16 -68 24 -79 38 -54 27 48 167 224 265 331 162 179 368 362 688 611 362
281 537 460 624 640 64 130 73 182 69 384 l-3 176 -33 57 c-43 74 -92 114
-171 138 -82 26 -214 26 -293 1z m-702 -1261 c8 0 14 -4 14 -10 0 -5 -5 -10
-11 -10 -7 0 -9 -11 -6 -30 5 -23 3 -28 -9 -23 -8 3 -24 -3 -35 -13 -19 -17
-20 -17 -26 4 -3 13 -13 22 -24 22 -21 0 -25 15 -8 26 6 3 8 17 4 31 -5 21 -3
24 13 19 12 -4 25 0 33 10 12 15 15 15 27 -5 8 -11 21 -21 28 -21z"/>
<path d="M4212 4354 c8 -23 6 -42 -10 -96 -17 -54 -19 -74 -11 -98 10 -27 15
-30 52 -30 l42 0 -32 -20 c-40 -24 -41 -41 -5 -88 l27 -36 -37 23 c-42 25 -73
22 -83 -10 -4 -11 -1 -28 7 -39 7 -10 46 -61 85 -113 217 -284 354 -611 410
-977 23 -156 23 -444 0 -600 -22 -142 -64 -306 -110 -431 -53 -139 -54 -149
-26 -149 23 -1 23 -1 4 -12 -11 -6 -28 -18 -37 -26 -17 -14 -16 -16 2 -42 15
-21 25 -26 45 -22 23 4 25 2 20 -20 -6 -22 0 -28 56 -58 57 -30 61 -34 44 -46
-16 -12 -26 -10 -72 15 l-53 29 -15 -21 c-14 -20 -12 -23 38 -54 28 -18 56
-34 61 -36 5 -2 6 -9 2 -16 -8 -12 -33 -11 -68 3 -24 11 -35 -31 -12 -48 25
-19 8 -36 -37 -36 -32 0 -39 3 -39 19 0 26 -17 36 -35 21 -23 -19 -19 -27 40
-67 30 -21 53 -42 51 -48 -6 -21 -36 -15 -77 14 -23 17 -48 31 -56 31 -28 0
-11 -31 37 -67 28 -20 50 -41 50 -45 0 -4 -11 -10 -24 -14 -13 -3 -28 -16 -35
-30 -19 -43 -111 -25 -111 22 0 8 11 26 25 40 28 28 30 34 13 34 -7 -1 -28
-22 -47 -47 l-34 -46 52 -46 c28 -25 51 -49 51 -53 0 -12 -38 -9 -60 4 -16 10
-23 10 -37 -4 -22 -23 -14 -29 41 -35 25 -3 43 -9 40 -14 -6 -10 -124 -12
-148 -3 -19 7 -22 40 -4 46 7 3 8 10 4 17 -6 9 -14 7 -32 -10 -19 -18 -27 -20
-36 -11 -9 9 -4 20 22 47 18 19 31 37 28 40 -3 3 -11 -1 -18 -10 -14 -16 -50
-21 -50 -6 0 17 43 41 73 41 29 0 45 15 126 117 79 100 201 302 201 332 0 5
-8 11 -17 15 -10 3 -23 8 -29 11 -7 3 -22 -11 -34 -32 -116 -193 -242 -356
-384 -498 -168 -167 -384 -319 -591 -416 -72 -34 -77 -38 -47 -38 19 -1 46 -8
62 -17 27 -17 29 -16 116 30 115 61 296 182 386 257 48 40 75 56 81 50 7 -7 5
-17 -6 -29 -16 -18 -16 -20 4 -38 16 -14 20 -27 16 -51 -5 -31 -5 -32 39 -39
29 -4 44 -11 44 -21 0 -11 -7 -14 -22 -10 -13 3 -45 9 -73 13 -83 11 -110 35
-60 54 27 10 34 40 9 40 -8 0 -33 -14 -54 -31 l-39 -31 40 -53 c44 -59 45 -61
23 -69 -9 -3 -25 5 -40 21 -20 22 -29 25 -42 16 -26 -16 -20 -36 15 -53 18 -8
33 -18 33 -22 0 -15 -32 -8 -71 14 -29 16 -42 19 -50 11 -9 -9 -8 -16 4 -28
35 -34 -12 -67 -53 -37 -42 32 -37 56 17 90 60 38 98 71 91 78 -3 3 -43 -20
-89 -50 -45 -31 -88 -57 -93 -59 -7 -3 -4 -12 7 -24 19 -21 23 -58 7 -68 -13
-8 -13 -25 0 -25 26 0 83 -31 74 -40 -14 -14 -158 41 -162 63 -2 9 4 19 12 22
53 17 51 14 34 31 -14 15 -20 14 -62 -11 -25 -15 -46 -29 -46 -31 0 -3 13 -31
30 -64 17 -34 26 -62 20 -65 -14 -9 -48 12 -55 35 -10 33 -24 23 -18 -14 4
-25 1 -35 -12 -39 -32 -13 -82 34 -70 66 3 7 22 21 41 30 38 18 39 42 1 27
-54 -21 -88 -43 -84 -54 3 -6 15 -35 28 -64 12 -29 19 -55 16 -58 -13 -13 -47
19 -63 62 -11 29 -26 49 -41 55 -24 9 -32 29 -11 29 9 0 9 3 0 12 -18 18 -14
45 10 68 28 26 24 25 -52 -6 -89 -36 -289 -89 -416 -111 -165 -27 -526 -25
-689 5 -390 71 -728 229 -1026 480 -198 166 -390 408 -503 630 -17 35 -31 50
-39 46 -39 -23 -257 -187 -257 -194 0 -5 22 -47 49 -93 301 -521 778 -909
1353 -1101 258 -86 475 -120 773 -120 361 -1 652 58 975 196 289 124 533 290
765 523 372 371 609 841 692 1365 25 161 25 555 0 724 -70 464 -275 904 -585
1254 -71 80 -94 104 -166 171 l-25 24 11 -29z m568 -2639 c0 -8 -7 -15 -15
-15 -8 0 -15 7 -15 15 0 8 7 15 15 15 8 0 15 -7 15 -15z m-32 -83 c2 -7 -3
-12 -12 -12 -9 0 -16 7 -16 16 0 17 22 14 28 -4z m-43 -80 c0 -18 -20 -15 -23
4 -3 10 1 15 10 12 7 -3 13 -10 13 -16z m-1527 -1049 c2 -7 -3 -13 -12 -13 -9
0 -16 -8 -16 -20 0 -18 4 -20 40 -14 33 5 40 4 40 -10 0 -9 -7 -16 -15 -16
-19 0 -19 2 2 -76 9 -35 14 -66 10 -70 -13 -13 -36 18 -53 69 -9 29 -18 53
-19 55 -5 6 -55 -10 -55 -18 0 -4 14 -13 30 -20 34 -14 49 -52 29 -76 -8 -10
-26 -14 -53 -12 -39 3 -42 5 -56 50 -20 64 -34 61 -25 -4 12 -84 12 -93 -5
-89 -8 3 -34 4 -57 3 -34 -2 -45 2 -62 24 -12 15 -21 31 -21 35 0 21 42 49 72
49 22 0 29 3 22 10 -7 7 -25 8 -55 1 -29 -7 -47 -7 -56 1 -20 16 -7 25 49 32
29 4 92 16 140 27 86 20 87 21 76 44 -8 19 -8 28 2 40 15 18 41 16 48 -2z
m-644 -165 c25 -36 21 -104 -8 -133 -25 -25 -25 -25 -4 -36 18 -10 18 -13 6
-25 -14 -14 -48 -10 -48 6 0 4 -13 21 -30 38 -34 36 -37 54 -15 72 13 11 20 9
39 -9 l24 -23 12 22 c6 11 10 31 8 43 -3 19 -8 22 -45 19 -37 -2 -43 0 -43 17
0 37 80 44 104 9z m86 -24 c0 -40 34 -28 38 14 4 36 5 36 33 22 16 -9 19 -22
19 -75 0 -54 -3 -67 -20 -77 -25 -16 -26 -26 -2 -24 26 2 21 -28 -6 -32 -14
-2 -32 5 -47 20 -13 13 -30 29 -39 36 -35 28 -2 54 40 32 27 -15 37 -10 28 14
-3 9 -17 16 -30 16 -43 0 -84 67 -58 93 13 13 44 -14 44 -39z"/>
<path d="M3090 341 c0 -10 7 -24 16 -31 12 -11 18 -11 31 2 14 15 13 18 -16
32 -29 16 -31 16 -31 -3z"/>
<path d="M2935 304 c-13 -13 -14 -19 -4 -25 17 -10 49 7 49 26 0 20 -25 19
-45 -1z"/>
<path d="M4100 4042 c0 -5 7 -15 15 -22 8 -7 15 -8 15 -2 0 5 -7 15 -15 22 -8
7 -15 8 -15 2z"/>
<path d="M2618 3487 c-141 -276 -422 -504 -943 -764 -363 -182 -632 -359 -791
-519 -75 -75 -185 -216 -224 -287 l-24 -42 35 28 c161 130 297 175 494 164 55
-3 140 -17 190 -30 50 -13 153 -41 230 -62 136 -37 145 -38 320 -39 218 -1
266 10 343 79 43 38 83 100 71 108 -2 2 -31 15 -65 30 -105 46 -179 61 -291
59 -66 -1 -103 2 -103 9 0 16 101 58 182 75 103 22 218 13 420 -36 290 -69
394 -84 578 -84 l165 -1 101 42 c56 22 119 52 140 66 65 40 132 117 165 185
53 112 64 171 64 338 l0 151 -44 87 c-31 64 -61 106 -110 155 -160 162 -289
204 -514 167 -185 -30 -244 -59 -395 -194 -46 -40 -86 -71 -89 -69 -7 8 25
120 87 300 33 94 58 172 57 173 -1 2 -23 -39 -49 -89z m400 -183 c2 -12 -4
-24 -12 -27 -19 -7 -40 18 -32 39 8 22 40 13 44 -12z m3 -60 c10 -12 10 -20 1
-35 -10 -16 -9 -19 16 -25 41 -10 51 -23 50 -62 -1 -31 5 -42 44 -76 52 -47
78 -92 78 -136 0 -20 5 -30 15 -30 21 0 19 -23 -5 -70 -17 -33 -18 -40 -6 -40
17 0 83 84 114 145 40 77 100 121 95 68 -4 -39 -107 -267 -132 -293 -14 -15
-47 -35 -73 -45 -53 -18 -58 -27 -29 -47 11 -8 25 -26 32 -41 12 -26 15 -27
91 -27 67 0 78 -2 79 -17 4 -108 -2 -207 -13 -214 -15 -10 -731 -12 -766 -3
-22 6 -23 9 -20 118 l3 111 90 5 c71 4 90 8 91 20 1 28 15 60 25 55 5 -4 9 1
9 10 0 9 -22 25 -54 39 -30 13 -61 35 -70 48 -33 50 -127 291 -118 300 16 16
49 -9 78 -60 48 -84 115 -172 130 -172 12 0 11 7 -6 40 -26 51 -26 74 0 67 18
-4 20 0 20 34 0 52 18 85 74 136 38 34 46 48 46 76 0 38 12 52 53 62 25 7 26
9 13 24 -10 11 -12 21 -5 34 12 21 32 22 50 1z"/>
<path d="M3000 3111 l-35 -7 28 -7 c24 -7 67 5 67 18 0 6 -11 5 -60 -4z"/>
<path d="M2913 3054 c-7 -19 -3 -22 35 -30 24 -5 33 -3 38 10 8 21 7 22 -34
29 -24 5 -34 3 -39 -9z"/>
<path d="M3030 3040 c0 -13 7 -20 20 -20 24 0 25 6 6 26 -20 19 -26 18 -26 -6z"/>
<path d="M3085 2990 c-11 -5 -28 -11 -39 -14 -14 -5 -16 -9 -7 -20 9 -11 8
-18 -4 -30 -29 -28 -61 -11 -52 27 6 23 4 25 -51 30 -52 6 -59 5 -79 -19 -27
-30 -29 -56 -7 -89 10 -15 12 -25 5 -25 -6 0 -11 5 -11 10 0 6 -4 10 -10 10
-16 0 -12 -26 8 -49 15 -18 22 -20 51 -11 21 6 57 6 95 1 33 -5 65 -6 70 -3
19 11 76 11 76 -1 0 -6 12 1 27 16 26 26 27 28 15 74 -13 48 -40 95 -58 99 -5
1 -18 -1 -29 -6z m48 -50 c3 -11 1 -23 -4 -26 -5 -3 -9 1 -9 10 0 8 -3 22 -7
32 -4 11 -3 15 4 11 6 -4 13 -16 16 -27z m-272 -11 c-5 -13 -10 -19 -10 -12
-1 15 10 45 15 40 3 -2 0 -15 -5 -28z m45 -16 c-11 -11 -17 4 -9 23 7 18 8 18
11 1 2 -10 1 -21 -2 -24z m138 -35 c8 -14 7 -21 -6 -34 -30 -30 -75 9 -48 42
16 18 39 15 54 -8z m-117 -10 c-3 -8 -6 -5 -6 6 -1 11 2 17 5 13 3 -3 4 -12 1
-19z m219 6 c-3 -9 -6 -18 -6 -20 0 -2 -4 -4 -9 -4 -5 0 -7 9 -4 20 3 11 10
20 15 20 6 0 7 -7 4 -16z"/>
<path d="M3005 2860 c4 -6 11 -8 16 -5 14 9 11 15 -7 15 -8 0 -12 -5 -9 -10z"/>
<path d="M3006 2951 c-4 -7 -5 -15 -2 -18 9 -9 19 4 14 18 -4 11 -6 11 -12 0z"/>
<path d="M3095 2790 c3 -5 8 -10 11 -10 2 0 4 5 4 10 0 6 -5 10 -11 10 -5 0
-7 -4 -4 -10z"/>
<path d="M2950 2760 c0 -5 5 -10 11 -10 5 0 7 5 4 10 -3 6 -8 10 -11 10 -2 0
-4 -4 -4 -10z"/>
<path d="M2971 2701 l22 -29 -22 -35 c-11 -19 -21 -42 -21 -51 0 -9 -4 -16
-10 -16 -5 0 -10 -9 -10 -20 0 -19 5 -21 57 -18 50 3 56 5 60 27 2 13 -6 38
-17 56 -24 39 -26 72 -3 97 15 17 14 18 -31 18 l-47 0 22 -29z"/>
<path d="M2619 2506 c-2 -2 -3 -46 -1 -98 l3 -93 375 -1 374 -1 0 98 0 99
-373 0 c-206 0 -376 -2 -378 -4z m93 -51 c-2 -18 -1 -18 14 3 9 12 23 22 30
22 17 0 18 -12 4 -26 -7 -7 -8 -19 -1 -35 5 -13 13 -33 17 -44 6 -14 10 -3 14
40 4 52 8 60 25 60 18 0 20 -7 20 -65 l0 -65 -50 0 c-42 0 -50 3 -53 20 -7 35
-24 43 -20 10 2 -25 -1 -31 -19 -33 -22 -3 -23 0 -23 61 0 35 3 67 7 71 14 13
38 0 35 -19z m222 19 c9 -3 16 -12 16 -20 0 -16 -16 -19 -25 -4 -8 13 -25 13
-25 1 0 -6 12 -16 27 -23 26 -13 29 -12 43 17 13 25 22 30 56 33 38 3 42 1 46
-22 6 -29 -3 -33 -22 -12 -20 25 -41 7 -38 -33 3 -34 5 -36 36 -35 39 2 44
-22 6 -32 -29 -7 -72 9 -80 30 -4 11 -11 8 -30 -11 -32 -32 -87 -30 -92 5 -2
12 1 22 7 22 6 0 11 -4 11 -10 0 -5 9 -10 20 -10 25 0 26 17 1 25 -33 10 -45
32 -33 60 12 25 41 32 76 19z m256 -21 c0 -25 -1 -25 -18 -10 -14 13 -21 14
-30 5 -23 -23 -11 -78 17 -78 33 1 51 26 51 69 0 38 2 42 22 39 20 -3 23 -9
23 -53 0 -40 3 -50 18 -53 17 -3 19 2 15 50 -2 41 0 53 12 53 11 0 13 -12 11
-55 -1 -30 -7 -61 -13 -67 -16 -20 -55 -15 -78 9 -16 17 -20 18 -20 6 0 -34
-58 -37 -96 -5 -23 20 -26 28 -20 60 8 42 27 56 74 57 28 0 32 -3 32 -27z"/>
<path d="M2520 1881 c5 -11 10 -24 10 -29 0 -5 -32 -54 -70 -108 -56 -78 -70
-105 -68 -129 3 -26 7 -30 37 -33 31 -3 33 -2 22 12 -15 17 -1 43 84 164 50
70 56 103 23 126 -32 23 -51 21 -38 -3z"/>
<path d="M2699 1833 c-154 -228 -240 -336 -294 -371 -42 -27 38 -2 85 26 47
29 91 83 227 276 l82 116 -34 0 c-29 0 -38 -7 -66 -47z"/>
<path d="M2386 1839 c-28 -33 -33 -68 -14 -87 19 -19 30 -14 18 7 -11 22 1 64
27 93 9 10 11 18 5 18 -5 0 -22 -14 -36 -31z"/>
<path d="M2850 1729 c0 -11 -12 -32 -27 -46 l-28 -26 29 7 c69 17 96 60 49 77
-19 7 -23 5 -23 -12z"/>
<path d="M3103 1738 c-24 -8 -33 -17 -33 -33 0 -12 -9 -34 -20 -48 -23 -29
-25 -48 -8 -65 14 -14 52 -16 43 -2 -7 11 18 61 51 106 40 52 32 62 -33 42z"/>
<path d="M3240 1744 c-13 -4 -100 -140 -100 -157 0 -4 12 -7 28 -7 23 0 34 11
75 80 26 43 47 82 47 85 0 6 -27 5 -50 -1z"/>
<path d="M3356 1740 c-59 -11 -60 -71 -2 -78 24 -3 27 -1 21 18 -4 11 -1 27 5
35 18 21 8 31 -24 25z"/>
<path d="M3525 1740 c4 -7 8 -22 9 -34 1 -25 25 -28 40 -4 12 20 3 32 -33 43
-17 5 -22 4 -16 -5z"/>
<path d="M2775 1728 c-45 -24 -75 -62 -75 -93 0 -40 16 -55 60 -55 32 1 34 2
16 15 -25 19 -14 80 22 118 27 28 15 36 -23 15z"/>
<path d="M2964 1721 c-57 -35 -83 -98 -52 -129 14 -14 68 -16 68 -2 0 6 -5 10
-11 10 -20 0 0 62 32 102 25 32 27 38 12 38 -10 0 -32 -9 -49 -19z"/>
<path d="M3458 1729 c-23 -13 -23 -41 2 -81 18 -30 18 -34 3 -50 -15 -17 -14
-18 10 -18 55 0 73 50 36 100 -12 16 -19 36 -16 44 7 18 -9 20 -35 5z"/>
<path d="M3380 1645 c-14 -17 -5 -51 16 -59 12 -4 15 -2 11 9 -4 8 1 19 10 23
19 11 11 42 -10 42 -8 0 -20 -7 -27 -15z"/>
<path d="M2284 1556 c-17 -8 -34 -21 -37 -31 -9 -23 9 -54 39 -65 40 -15 46
-12 28 15 -15 22 -15 29 -3 53 7 15 15 30 17 35 5 10 -9 8 -44 -7z"/>
<path d="M2816 1531 c-19 -20 -31 -111 -15 -111 4 0 11 16 15 35 3 19 10 35
15 35 5 0 9 9 9 20 0 11 5 20 11 20 5 0 7 5 4 10 -9 15 -20 12 -39 -9z"/>
<path d="M2932 1538 c-20 -20 -14 -38 23 -59 19 -12 32 -25 29 -30 -8 -13 -48
-11 -62 3 -17 17 -28 2 -12 -17 7 -8 27 -15 46 -15 61 0 64 56 4 75 -11 3 -20
11 -20 16 0 16 27 21 49 9 12 -6 21 -7 21 -2 0 15 -24 32 -45 32 -12 0 -26 -5
-33 -12z"/>
<path d="M3310 1540 c0 -5 5 -10 10 -10 6 0 10 5 10 10 0 6 -4 10 -10 10 -5 0
-10 -4 -10 -10z"/>
<path d="M2693 1484 c-20 -31 -9 -57 26 -62 26 -4 61 23 61 48 0 44 -60 54
-87 14z m67 -3 c0 -23 -14 -41 -30 -41 -25 0 -35 18 -20 35 14 16 50 20 50 6z"/>
<path d="M3035 1486 c-23 -34 -5 -69 32 -64 15 2 28 8 30 14 2 7 -6 10 -22 7
-15 -3 -25 -1 -25 6 0 6 16 11 35 11 36 0 46 15 23 38 -20 20 -56 14 -73 -12z
m52 -2 c-3 -3 -12 -4 -19 -1 -8 3 -5 6 6 6 11 1 17 -2 13 -5z"/>
<path d="M3146 1502 c-2 -4 -7 -24 -11 -45 -9 -46 7 -49 20 -4 13 43 48 45 55
2 7 -42 27 -37 57 13 14 23 20 42 14 42 -6 0 -18 -14 -26 -30 -18 -34 -35 -31
-35 6 0 21 -5 24 -34 24 -19 0 -37 -3 -40 -8z"/>
<path d="M3293 1465 c-6 -25 -7 -45 -2 -45 11 0 16 11 24 53 10 53 -9 47 -22
-8z"/>
<path d="M3353 1498 c-18 -24 -22 -46 -9 -63 14 -19 57 -17 64 4 3 9 -2 11
-17 6 -30 -9 -43 2 -30 27 8 14 18 19 35 15 16 -3 23 0 21 7 -5 16 -52 19 -64
4z"/>
<path d="M3440 1490 c-6 -12 -10 -31 -8 -43 2 -18 10 -22 37 -22 19 0 36 6 38
12 3 9 -4 11 -26 7 -20 -4 -31 -2 -31 5 0 6 16 11 36 11 31 0 35 3 32 23 -4
32 -62 37 -78 7z m53 -7 c-7 -2 -19 -2 -25 0 -7 3 -2 5 12 5 14 0 19 -2 13 -5z"/>
<path d="M3540 1430 c0 -5 5 -10 10 -10 6 0 10 5 10 10 0 6 -4 10 -10 10 -5 0
-10 -4 -10 -10z"/>
<path d="M3590 1430 c0 -5 5 -10 10 -10 6 0 10 5 10 10 0 6 -4 10 -10 10 -5 0
-10 -4 -10 -10z"/>
<path d="M3645 1430 c-3 -5 -1 -10 4 -10 6 0 11 5 11 10 0 6 -2 10 -4 10 -3 0
-8 -4 -11 -10z"/>
<path d="M4470 1415 c-7 -8 -9 -22 -6 -31 5 -13 9 -14 21 -4 17 14 20 36 6 44
-5 3 -14 -1 -21 -9z"/>
<path d="M1801 1384 c-12 -15 -21 -37 -21 -50 0 -21 -5 -24 -36 -24 -28 0 -35
-3 -32 -17 2 -12 14 -19 35 -21 l33 -3 2 -192 3 -192 35 0 35 0 3 193 2 192
116 0 115 0 -3 -126 c-3 -139 -10 -153 -61 -140 -27 6 -27 8 -27 91 l0 85 40
0 c29 0 40 4 40 15 0 11 -12 15 -44 15 -24 0 -51 3 -59 6 -9 3 -25 -4 -36 -15
-18 -18 -21 -33 -21 -101 0 -74 2 -82 29 -112 25 -28 36 -33 82 -34 53 -2 54
-3 59 -36 5 -30 8 -33 40 -33 l35 0 3 148 3 148 42 -3 42 -3 3 -70 c3 -80 -4
-94 -45 -103 -27 -6 -29 -10 -22 -29 14 -39 104 -21 129 26 14 28 13 184 -2
199 -7 7 -40 12 -80 12 l-68 0 0 30 0 29 93 3 c74 2 92 6 92 18 0 12 -19 16
-95 20 l-95 5 3 27 c2 18 -5 32 -24 47 -24 19 -40 21 -175 21 -148 0 -148 0
-168 -26z m287 -47 l3 -28 -113 3 c-101 3 -113 5 -116 22 -6 30 17 36 123 34
l100 -3 3 -28z"/>
<path d="M2370 1290 c0 -18 7 -20 75 -20 l75 0 0 -75 c0 -61 -3 -77 -16 -82
-28 -11 -49 11 -52 56 -3 42 -4 42 -38 39 l-36 -3 1 -135 c0 -134 0 -135 27
-158 24 -21 35 -23 110 -20 l84 3 0 33 c0 42 -19 49 -77 27 -44 -17 -47 -17
-60 0 -7 11 -13 36 -13 57 0 36 2 38 33 38 40 0 93 31 102 60 4 14 12 19 22
16 8 -3 23 -6 34 -6 18 0 19 -8 19 -120 l0 -120 40 0 40 0 0 195 0 195 30 0
30 0 0 -195 0 -195 35 0 35 0 0 195 c0 188 1 195 20 195 13 0 20 7 20 20 0 19
-7 20 -150 20 -143 0 -150 -1 -150 -20 0 -15 7 -20 25 -20 23 0 25 -3 25 -50
0 -49 -1 -50 -30 -50 -29 0 -30 1 -30 51 0 86 -5 89 -125 89 -98 0 -105 -1
-105 -20z"/>
<path d="M2930 1290 c0 -19 7 -20 130 -20 l130 0 0 -49 0 -49 -108 -4 c-73 -2
-114 -7 -125 -17 -14 -11 -17 -33 -17 -116 0 -125 4 -130 100 -130 96 0 110
15 110 111 0 71 0 72 -30 82 -24 9 -33 7 -52 -8 -18 -15 -20 -22 -10 -28 9 -6
12 -26 10 -58 -3 -42 -6 -49 -26 -52 -22 -3 -23 -2 -20 80 l3 83 82 3 82 3 3
-118 3 -118 36 -3 c36 -3 36 -3 41 43 3 25 3 113 0 196 l-5 149 37 0 c29 0 36
4 36 20 0 19 -7 20 -205 20 -198 0 -205 -1 -205 -20z"/>
<path d="M4362 1168 c-17 -17 -15 -48 2 -48 18 0 32 38 19 51 -5 5 -14 4 -21
-3z"/>
<path d="M4210 1071 c0 -10 30 -24 37 -17 3 3 2 9 -2 15 -8 13 -35 15 -35 2z"/>
<path d="M2180 850 c-82 -8 -295 -48 -372 -70 -21 -6 -44 -17 -52 -26 -17 -17
-11 -44 10 -44 8 0 17 -6 20 -14 9 -23 29 -25 96 -10 89 20 94 22 80 36 -7 7
-12 15 -12 19 0 8 180 45 285 59 109 13 378 14 503 1 141 -15 315 -46 452 -81
109 -28 135 -30 114 -11 -24 22 -300 86 -519 121 -147 24 -464 34 -605 20z"/>
<path d="M2570 791 c0 -5 7 -12 16 -15 41 -16 -12 -21 -210 -20 -172 0 -216
-2 -216 -13 0 -8 13 -13 36 -13 31 0 35 -3 32 -22 -4 -29 -24 -34 -31 -7 -9
34 -32 16 -35 -28 -2 -33 1 -44 20 -57 28 -20 62 -21 78 -1 11 13 7 15 -24 15
-20 0 -36 5 -36 10 0 6 9 10 20 10 11 0 27 11 36 25 23 36 32 31 36 -17 2 -30
8 -43 18 -43 11 0 16 14 18 58 2 42 7 57 17 57 12 0 15 -14 15 -60 0 -47 3
-60 15 -60 12 0 15 13 15 60 l0 60 48 -1 c44 -2 45 -2 12 -8 -31 -5 -35 -10
-38 -41 -3 -48 9 -62 56 -66 l41 -3 3 42 c2 29 8 42 18 42 22 0 26 -54 4 -69
-23 -17 -1 -31 26 -16 16 8 20 21 20 60 l0 49 -37 4 c-31 3 -29 4 15 5 l52 2
0 -60 c0 -47 3 -60 15 -60 12 0 15 13 15 60 l0 60 45 0 c38 0 45 -3 45 -19 0
-28 -20 -37 -27 -12 -3 12 -12 21 -19 21 -10 0 -14 -14 -14 -50 0 -44 3 -52
24 -61 26 -12 76 -5 76 11 0 6 -13 10 -29 10 -40 0 -48 16 -12 23 18 4 30 14
34 28 9 35 32 16 35 -29 2 -29 8 -42 18 -42 11 0 14 14 14 60 0 48 3 60 16 60
9 0 14 5 12 12 -3 7 -41 12 -111 15 -91 2 -110 6 -127 23 -20 20 -50 27 -50
11z m-283 -67 c-3 -3 -12 -4 -19 -1 -8 3 -5 6 6 6 11 1 17 -2 13 -5z m188 -54
c0 -13 -5 -25 -12 -27 -13 -5 -27 32 -18 47 11 18 30 5 30 -20z"/>
<path d="M3785 610 c3 -5 8 -10 11 -10 2 0 4 5 4 10 0 6 -5 10 -11 10 -5 0 -7
-4 -4 -10z"/>
<path d="M3386 575 c-13 -13 -13 -45 0 -45 13 0 84 34 84 40 0 22 -63 26 -84
5z"/>
<path d="M3490 461 c0 -5 5 -13 10 -16 6 -3 10 -2 10 4 0 5 -4 13 -10 16 -5 3
-10 2 -10 -4z"/>
</g>
</svg>
